<?xml version="1.0" encoding="UTF-8"?>
<!-- Generator: Adobe Illustrator 19.2.1, SVG Export Plug-In . SVG Version: 6.00 Build 0)  -->
<svg version="1.1" id="Ebene_1" xmlns="http://www.w3.org/2000/svg" xmlns:xlink="http://www.w3.org/1999/xlink" x="0px" y="0px" viewBox="0 0 299.5 223.4" style="enable-background:new 0 0 299.5 223.4;" xml:space="preserve">
<style type="text/css">
	.st0{clip-path:url(#SVGID_2_);}
	.st1{fill:#FF5300;}
	.st2{fill:#FFAA93;}
	.st3{fill:#FF7655;}
	.st4{fill:#FF5125;}
	.st5{fill:#FF496A;}
	.st6{fill:#FF8F74;}
	.st7{fill:#FF3100;}
	.st8{fill:#D86003;}
	.st9{fill:#BE1F19;}
	.st10{fill:#B6002D;}
	.st11{fill:#7F2F24;}
	.st12{fill:#E30034;}
	.st13{fill:#FB1F2E;}
	.st14{fill:#A82819;}
	.st15{fill:#9C3014;}
	.st16{fill:#90191E;}
	.st17{fill:#381419;}
	.st18{fill:#4E1C23;}
	.st19{fill:#8C2F1B;}
	.st20{fill:#8A1C0C;}
	.st21{fill:#F61737;}
	.st22{fill:#FF6836;}
	.st23{fill:#720B0F;}
	.st24{fill:#60212B;}
	.st25{fill:#F1162F;}
	.st26{fill:#BF3D00;}
	.st27{fill:#E00A2F;}
	.st28{fill:#FFFFFF;}
</style>
<title>Logo ohne Schatten</title>
<g>
	<defs>
		<polygon id="SVGID_1_" points="181.4,142.7 181.4,79.2 0,79.6 0,63.8 126,63.4 126,0 0,0 0,221.9 181.4,221.9 181.4,158.5     0,158.5 0,142.7   "/>
	</defs>
	<clipPath id="SVGID_2_">
		<use xlink:href="#SVGID_1_" style="overflow:visible;"/>
	</clipPath>
	<g class="st0">
		<polygon class="st1" points="-177.8,126.9 -156.2,141.2 -177.8,171.1   "/>
		<polygon class="st2" points="-106.7,56.7 -156.2,141.2 -177.8,126.9 -156.2,90.1   "/>
		<polygon class="st3" points="-96.2,35.8 -71.9,54.8 -74.2,24.9   "/>
		<polygon class="st4" points="-96.2,35.8 -106.7,56.7 -71.9,54.8   "/>
		<polygon class="st2" points="-74.2,24.9 -26.3,24.9 -71.9,54.8   "/>
		<polygon class="st5" points="4.6,-15.7 25.8,22.5 -26.3,24.9   "/>
		<polygon class="st3" points="60.2,-25.2 25.8,22.5 9.2,-7.5   "/>
		<polygon class="st6" points="25.8,22.5 -71.9,54.8 -26.3,24.9   "/>
		<polygon class="st6" points="-156.2,141.2 -69.1,79.1 -106.7,56.7   "/>
		<polygon class="st5" points="25.8,22.5 -69.1,79.1 -71.9,54.8   "/>
		<polygon class="st7" points="-106.7,56.7 -71.9,54.8 -69.1,79.1   "/>
		<polygon class="st8" points="-156.2,141.2 -140.7,221.3 -177.8,171.1   "/>
		<polygon class="st9" points="-156.2,141.2 -104.7,166.4 -140.7,221.3   "/>
		<polygon class="st10" points="-104.7,166.4 -102.1,231.3 -140.7,221.3   "/>
		<polygon class="st10" points="-104.7,166.4 -13.3,206.9 -102.1,231.3   "/>
		<polygon class="st11" points="81,187.8 147.5,231.3 47.4,231.3   "/>
		<polygon class="st7" points="-69.1,79.1 -104.7,166.4 -156.2,141.2   "/>
		<polygon class="st12" points="60.2,-25.2 84.3,5.6 102.5,-18.3   "/>
		<polygon class="st13" points="84.3,5.3 138.3,4.1 102.7,-18.3   "/>
		<polygon class="st14" points="138.3,4.1 138.3,36.7 164.5,37.4   "/>
		<polygon class="st15" points="138.3,36.7 176.1,66 164.5,37.4   "/>
		<polygon class="st16" points="176.1,66 179.2,86.5 231,118.5 207.8,83   "/>
		<polygon class="st17" points="231,118.5 208.7,148.2 234.1,159.8   "/>
		<polygon class="st18" points="234.1,159.8 208.7,148.2 222.5,194.2   "/>
		<polygon class="st17" points="208.7,148.2 191.6,221.3 222.5,194.2   "/>
		<polygon class="st19" points="179.2,86.5 208.7,148.2 231,118.5   "/>
		<polygon class="st10" points="138.3,36.7 133,46.9 179.2,86.5 176.1,66   "/>
		<polygon class="st9" points="179.2,86.5 129.2,141.7 208.7,148.2   "/>
		<polygon class="st12" points="208.7,148.2 83.8,150.3 129.2,141.7   "/>
		<polygon class="st16" points="83.8,150.3 160.9,190 208.7,148.2   "/>
		<polygon class="st18" points="160.9,190 191.6,221.3 208.7,148.2   "/>
		<polygon class="st18" points="81,187.8 160.9,190 147.5,231.3   "/>
		<polygon class="st17" points="160.9,190 191.6,221.3 147.5,231.3   "/>
		<polygon class="st12" points="-69.1,79.1 -37,120.4 -104.7,166.4   "/>
		<polygon class="st13" points="7.9,187.6 -13.3,206.9 -31.2,154.5   "/>
		<polygon class="st20" points="83.8,150.3 37.8,179.5 81,187.8   "/>
		<polygon class="st12" points="133,46.9 120.1,86.2 179.2,86.5   "/>
		<polygon class="st13" points="120.1,86.2 129.2,141.7 179.2,86.5   "/>
		<polygon class="st5" points="25.8,22.5 138.3,36.7 133,46.9   "/>
		<polygon class="st6" points="25.8,22.5 84.1,5.3 60.2,-25.2   "/>
		<polygon class="st10" points="84.1,5.3 138.3,36.7 138.3,4.1   "/>
		<polygon class="st21" points="84.1,5.3 138.3,36.7 25.8,22.5   "/>
		<polygon class="st3" points="25.8,22.5 23.4,78.1 -20.4,50   "/>
		<polygon class="st7" points="23.4,78.1 80.5,63.5 25.8,22.5   "/>
		<polygon class="st3" points="25.8,22.5 133,46.9 80.5,63.5   "/>
		<polygon class="st7" points="80.5,63.5 120.1,86.2 133,46.9   "/>
		<polygon class="st6" points="23.4,78.1 71.6,70.1 80.5,63.5   "/>
		<polygon class="st6" points="-69.1,79.1 -15.4,73.9 -37,120.4   "/>
		<polygon class="st12" points="71.6,70.1 93.3,120.4 23.4,78.1   "/>
		<polygon class="st12" points="93.3,120.4 129.2,141.7 120.1,86.2   "/>
		<polygon class="st1" points="129.2,141.7 83.8,150.3 93.3,120.4   "/>
		<polygon class="st18" points="7.9,187.6 37.8,179.5 8.9,231.3 -13.3,206.9   "/>
		<polygon class="st12" points="-37,120.4 -31.2,154.5 -59.4,151.5   "/>
		<polygon class="st22" points="-20.4,50 -69.1,79.1 -15.4,73.9 23.4,78   "/>
		<polygon class="st3" points="23.4,78 -15.4,73.9 -37,120.4   "/>
		<polygon class="st23" points="37.8,179.5 81,187.8 47.4,231.3   "/>
		<polygon class="st24" points="81,187.8 83.8,150.3 160.9,190   "/>
		<polygon class="st10" points="80.5,63.5 93.3,120.4 71.6,70.1   "/>
		<polygon class="st25" points="80.5,63.5 120.1,86.2 93.3,120.4   "/>
		<polygon class="st7" points="-59.4,151.5 -31.2,154.5 -104.7,166.4   "/>
		<polygon class="st4" points="-37,120.4 -59.4,151.5 -104.7,166.4   "/>
		<polygon class="st9" points="-31.2,154.5 37.8,179.5 7.9,187.6   "/>
		<polygon class="st16" points="-102.1,231.3 -13.3,206.9 8.9,231.3   "/>
		<polygon class="st12" points="-104.7,166.4 -13.3,206.9 -31.2,154.5   "/>
		<polygon class="st17" points="37.8,179.5 47.4,231.3 8.9,231.3   "/>
		<polygon class="st26" points="-31.2,154.5 83.8,150.3 37.8,179.5   "/>
		<polygon class="st27" points="-37,120.4 32,128.3 -31.2,154.5   "/>
		<polygon class="st1" points="-31.2,154.5 32,128.3 83.8,150.3   "/>
		<polygon class="st7" points="-37,120.4 23.4,78 32,128.3   "/>
		<polygon class="st13" points="23.4,78 93.3,120.4 83.8,150.3 32,128.3   "/>
	</g>
</g>
<path d="M196.3,203.8v-1.5c-0.1-0.8,0.5-1.4,1.2-1.5c0.1,0,0.2,0,0.3,0h9.5c1,0,1.5,0.4,1.5,1.2v1.3c0,4.6,4.6,8.6,11.9,8.6  c6.9,0,9.4-3.4,9.4-7c0-4.6-4.6-6.2-13.2-9.4c-9.4-3.2-20.2-7.5-20.2-19.4c0-11.1,9.1-17.9,22-17.9c13.9,0,23.7,7.8,23.7,19.4v0.9  c0.1,0.8-0.5,1.4-1.2,1.5c-0.1,0-0.2,0-0.3,0h-9.5c-1,0-1.5-0.4-1.5-0.9v-0.9c0-4.7-4.1-9.1-11.6-9.1c-5.8,0-9,2.5-9,6.8  c0,4.7,4,6.3,14,9.8c8.2,3,19.6,6.5,19.6,18.8c0,11-8.9,18.3-23.1,18.3S196.3,215.2,196.3,203.8z"/>
<path d="M250.5,200v-19.3c0-13.5,9.5-22.6,23.7-22.6s23.8,9.1,23.8,22.6V200c0,13.7-9.5,22.9-23.8,22.9S250.5,213.7,250.5,200z   M285.3,200.4v-19.8c0-7-4.4-11.6-11.1-11.6s-11,4.6-11,11.6v19.8c0,6.9,4.4,11.5,11,11.5S285.3,207.4,285.3,200.4L285.3,200.4  L285.3,200.4z"/>
<path d="M194.8,141V80.9c-0.1-0.8,0.5-1.4,1.2-1.5c0.1,0,0.2,0,0.3,0h22.1c13.6,0,22.5,7.6,22.5,19.1v24.9  c0,11.5-8.9,19.1-22.5,19.1h-22.1c-0.8,0.1-1.4-0.4-1.5-1.2C194.8,141.2,194.8,141.1,194.8,141z M208,131.6h10.8  c5.6,0,9.3-4.1,9.4-10.3v-20.7c0-6.2-3.7-10.3-9.5-10.3H208c-0.3,0-0.5,0.1-0.5,0.4c0,0,0,0.1,0,0.1V131c0,0.3,0.1,0.5,0.4,0.5  L208,131.6L208,131.6z"/>
<path d="M286,141.2l-2.5-8.4c0-0.3-0.3-0.5-0.5-0.5c0,0,0,0,0,0h-22.2c-0.3,0-0.5,0.2-0.5,0.4c0,0,0,0,0,0l0,0l-2.5,8.4  c-0.2,0.8-0.9,1.3-1.7,1.3h-10.5c-0.6,0.1-1.3-0.3-1.4-1c0-0.3,0-0.5,0.1-0.7l19.2-60.1c0.2-0.8,0.9-1.3,1.7-1.3h13.3  c0.8,0,1.5,0.5,1.7,1.3l19.2,60.2c0.3,0.6,0.1,1.3-0.5,1.6c-0.2,0.1-0.5,0.2-0.7,0.1h-10.5C286.9,142.5,286.2,142,286,141.2z   M263.9,122.6h16c0.4,0,0.5-0.2,0.5-0.6l-8.2-27.5c-0.2-0.4-0.5-0.4-0.7,0l-8,27.5C263.3,122.4,263.5,122.6,263.9,122.6L263.9,122.6  z"/>
<path d="M188.4,20.4c0,11.4-8.2,19.1-20.5,19.1h-12.7c-0.3,0-0.5,0.2-0.5,0.5c0,0,0,0,0,0l0,0v22.5c0.1,0.8-0.5,1.4-1.2,1.5  c-0.1,0-0.2,0-0.3,0h-9.6c-0.8,0.1-1.4-0.4-1.5-1.2c0-0.1,0-0.2,0-0.3V2.4c-0.1-0.8,0.5-1.4,1.2-1.5c0.1,0,0.2,0,0.3,0h25  C180.5,0.9,188.4,8.7,188.4,20.4z M175.8,20.7c0-5.3-3.7-8.8-9.2-8.8h-11.4c-0.3,0-0.5,0.1-0.5,0.4c0,0,0,0.1,0,0.1v16.4  c0,0.3,0.1,0.5,0.4,0.5h11.5C172.1,29.4,175.8,25.8,175.8,20.7L175.8,20.7z"/>
<path d="M229.5,62.9l-11.1-24.5c-0.1-0.3-0.3-0.4-0.6-0.5h-8.2c-0.3,0-0.5,0.1-0.5,0.4c0,0,0,0.1,0,0.1v24.1  c0.1,0.8-0.5,1.4-1.2,1.5c-0.1,0-0.2,0-0.3,0h-9.6c-0.8,0.1-1.4-0.5-1.5-1.2c0-0.1,0-0.2,0-0.3V2.4c-0.1-0.8,0.5-1.4,1.2-1.5  c0.1,0,0.2,0,0.3,0h25.3c11.6,0,19.3,7.7,19.3,19c0,8.2-4.4,14.3-11.5,16.8c-0.2,0-0.4,0.3-0.4,0.5c0,0.1,0,0.1,0.1,0.2l11.9,24.9  c0.4,0.5,0.3,1.2-0.2,1.6c-0.3,0.2-0.6,0.3-0.9,0.2h-10.2C230.5,64,229.8,63.6,229.5,62.9z M209,12.4v15.2c0,0.3,0.2,0.5,0.5,0.5  c0,0,0,0,0,0h11.8c5,0,8.6-3.2,8.6-8s-3.5-8.2-8.6-8.2h-11.7c-0.3,0-0.5,0.2-0.5,0.4C209,12.3,209,12.4,209,12.4L209,12.4L209,12.4z  "/>
<path d="M250.4,42.2V22.9c0-13.5,9.5-22.6,23.7-22.6s23.8,9.1,23.8,22.6v19.3c0,13.7-9.5,22.9-23.8,22.9S250.4,55.9,250.4,42.2z   M285.2,42.6V22.7c0-7-4.4-11.6-11.1-11.6s-11,4.6-11,11.6v19.8c0,6.9,4.4,11.5,11,11.5S285.2,49.6,285.2,42.6L285.2,42.6  L285.2,42.6z"/>
<rect x="-2.7" y="142.7" class="st28" width="184.1" height="15.8"/>
<polygon class="st28" points="-1,79.6 126.3,78.6 126.3,63.4 -1,63.4 "/>
<polyline class="st28" points="0,79.6 125.6,79.4 127.3,63.4 "/>
</svg>